<?xml version="1.0" encoding="UTF-8" standalone="no"?>
<!DOCTYPE svg PUBLIC "-//W3C//DTD SVG 1.1//EN" "http://www.w3.org/Graphics/SVG/1.1/DTD/svg11.dtd">
<svg xmlns="http://www.w3.org/2000/svg" version="1.1" viewBox="0 0 183 101">
<g stroke-width="2.00" fill="none" stroke-linecap="butt">
<path stroke="#ada8a9" vector-effect="non-scaling-stroke" d="
  M 170.54 1.75
  Q 170.60 2.42 170.25 2.96"
/>
<path stroke="#808080" vector-effect="non-scaling-stroke" d="
  M 170.25 2.96
  Q 168.98 3.62 167.67 3.46
  Q 166.19 3.28 165.82 3.33
  Q 164.87 3.47 163.97 3.81
  Q 163.50 3.99 163.01 3.91
  Q 160.93 3.62 158.95 4.35
  Q 157.21 5.00 157.55 2.66
  A 0.82 0.82 88.8 0 0 156.58 1.73
  Q 154.68 2.11 156.19 3.06
  Q 156.65 3.35 156.71 3.94
  A 0.57 0.47 -5.0 0 1 156.18 4.46
  Q 153.69 4.66 152.99 7.00
  Q 152.43 8.90 150.58 9.61
  Q 123.53 20.08 96.94 30.19
  Q 95.65 30.68 94.78 29.93
  A 1.72 0.63 50.1 0 0 93.95 29.45
  Q 91.49 29.04 92.22 32.33"
/>
<path stroke="#808080" vector-effect="non-scaling-stroke" d="
  M 92.22 32.33
  Q 90.52 31.52 88.81 29.94
  Q 86.80 28.08 86.38 30.27
  Q 86.33 30.52 86.58 30.36
  L 86.95 30.13
  A 0.90 0.50 46.4 0 1 87.81 30.40
  Q 92.88 35.02 94.54 41.93
  Q 94.87 43.27 95.45 42.02
  Q 96.73 39.25 95.00 36.42
  Q 94.05 34.87 93.21 33.25"
/>
<path stroke="#808080" vector-effect="non-scaling-stroke" d="
  M 93.21 33.25
  Q 92.37 31.82 93.27 30.62
  A 0.51 0.49 -44.9 0 1 94.08 30.60
  L 98.43 36.79
  A 2.54 1.93 -61.1 0 1 98.70 38.63
  L 96.53 48.00
  A 1.81 1.79 -3.4 0 1 95.36 49.30
  Q 90.85 50.89 94.31 52.83
  Q 95.49 53.49 96.95 53.45
  Q 103.64 53.23 106.94 48.19
  Q 108.74 45.42 111.16 45.20
  A 0.70 0.35 3.8 0 0 111.64 45.00
  Q 111.81 44.75 111.17 44.69
  Q 107.89 44.38 105.86 47.20
  A 0.36 0.36 -43.5 0 1 105.27 47.19
  Q 103.30 44.17 101.80 41.05
  Q 101.68 40.79 101.48 40.63
  Q 100.55 39.87 101.01 41.25
  Q 102.07 44.46 104.55 47.86
  A 0.87 0.86 -33.3 0 1 104.28 49.13
  Q 101.99 50.46 99.57 51.31
  Q 99.45 51.35 98.10 51.91
  Q 96.26 52.67 94.72 51.89
  Q 92.70 50.88 94.92 50.44
  Q 97.11 50.01 97.66 47.98
  Q 98.77 43.91 99.43 40.15
  A 1.71 1.70 -6.5 0 1 100.46 38.87
  Q 127.18 27.89 152.43 17.18
  Q 155.55 15.86 158.54 16.96
  Q 160.23 17.58 161.06 17.42
  Q 162.40 17.17 163.50 16.21"
/>
<path stroke="#ada8a9" vector-effect="non-scaling-stroke" d="
  M 163.50 16.21
  Q 163.64 20.13 166.25 17.25
  Q 167.67 15.69 165.75 16.00
  Q 164.83 16.15 164.21 15.50"
/>
<path stroke="#808080" vector-effect="non-scaling-stroke" d="
  M 164.21 15.50
  Q 165.12 13.47 167.25 13.04"
/>
<path stroke="#ada8a9" vector-effect="non-scaling-stroke" d="
  M 167.25 13.04
  Q 168.04 15.87 169.45 14.15
  A 0.59 0.45 44.1 0 0 169.35 13.46
  L 167.96 12.00"
/>
<path stroke="#808080" vector-effect="non-scaling-stroke" d="
  M 167.96 12.00
  Q 170.45 9.54 173.54 11.11
  A 1.26 1.25 -51.4 0 0 174.92 10.95
  Q 177.79 8.51 176.19 5.06
  Q 175.02 2.55 171.50 3.21"
/>
<path stroke="#ada8a9" vector-effect="non-scaling-stroke" d="
  M 171.50 3.21
  Q 171.42 2.57 171.71 2.00"
/>
<path stroke="#808080" vector-effect="non-scaling-stroke" d="
  M 171.71 2.00
  Q 172.40 0.02 170.78 0.42
  A 0.59 0.47 -15.5 0 0 170.32 1.05
  L 170.54 1.75"
/>
<path stroke="#2d2929" vector-effect="non-scaling-stroke" d="
  M 171.71 2.00
  Q 171.05 2.12 170.54 1.75"
/>
<path stroke="#2d2929" vector-effect="non-scaling-stroke" d="
  M 170.25 2.96
  Q 170.85 3.26 171.50 3.21"
/>
<path stroke="#2d2929" vector-effect="non-scaling-stroke" d="
  M 167.96 12.00
  Q 167.77 12.68 167.25 13.04"
/>
<path stroke="#2d2929" vector-effect="non-scaling-stroke" d="
  M 164.21 15.50
  Q 163.75 15.75 163.50 16.21"
/>
<path stroke="#000000" vector-effect="non-scaling-stroke" d="
  M 93.21 33.25
  Q 91.83 33.20 92.22 32.33"
/>
<path stroke="#838282" vector-effect="non-scaling-stroke" d="
  M 167.3179 2.2047
  A 1.04 0.92 30.3 0 0 166.8842 0.8857
  A 1.04 0.92 30.3 0 0 165.5221 1.1553
  A 1.04 0.92 30.3 0 0 165.9558 2.4743
  A 1.04 0.92 30.3 0 0 167.3179 2.2047"
/>
<path stroke="#808080" vector-effect="non-scaling-stroke" d="
  M 161.33 1.28
  Q 160.39 1.57 160.56 2.58
  A 0.70 0.65 -1.4 0 0 161.18 3.13
  Q 162.95 3.26 162.07 1.62
  A 0.67 0.60 66.8 0 0 161.33 1.28"
/>
<path stroke="#9a9797" vector-effect="non-scaling-stroke" d="
  M 28.54 52.25
  L 24.29 50.75"
/>
<path stroke="#838282" vector-effect="non-scaling-stroke" d="
  M 24.29 50.75
  Q 13.37 46.49 2.51 42.07
  Q 1.23 41.55 1.79 42.36
  Q 1.92 42.55 2.16 42.67
  Q 5.20 44.18 8.08 45.98
  A 0.64 0.63 25.8 0 1 8.34 46.72
  Q 4.89 57.17 5.89 68.18
  A 0.65 0.63 -12.9 0 1 5.46 68.84
  Q 2.87 69.76 5.53 70.61
  A 1.18 1.15 85.4 0 1 6.22 71.21
  Q 11.02 81.15 19.44 88.34
  Q 25.02 93.10 32.50 92.23
  Q 42.46 91.08 48.74 83.77
  Q 49.76 82.58 51.39 79.94
  Q 52.63 77.95 53.94 76.00
  Q 56.05 72.88 58.59 71.57
  Q 62.96 69.33 68.01 69.68
  Q 72.10 69.96 72.98 69.69
  Q 75.90 68.79 76.38 65.31
  A 0.50 0.48 7.4 0 0 75.94 64.76
  Q 66.84 63.71 65.25 54.54"
/>
<path stroke="#c7c5c5" vector-effect="non-scaling-stroke" d="
  M 65.25 54.54
  Q 66.41 52.76 68.50 52.46"
/>
<path stroke="#808080" vector-effect="non-scaling-stroke" d="
  M 68.50 52.46
  Q 73.13 57.52 80.01 56.33
  Q 84.49 55.55 87.56 58.69
  Q 92.55 63.82 99.74 64.60
  Q 106.96 65.38 112.23 60.48
  Q 114.02 58.82 115.68 57.03
  Q 115.72 56.99 117.57 55.24
  Q 119.81 53.12 119.50 50.25
  Q 118.75 43.43 114.86 35.48
  Q 113.51 32.72 113.77 35.34
  Q 113.81 35.67 113.91 36.03
  Q 116.99 46.88 117.50 49.75
  Q 118.07 53.00 115.44 55.44
  Q 110.88 59.66 106.29 61.26
  Q 99.76 63.54 93.79 60.83
  Q 92.34 60.17 90.67 58.59
  Q 88.39 56.42 87.69 56.06
  Q 84.53 54.45 80.99 55.21
  Q 71.44 57.25 67.50 48.75
  Q 67.11 47.92 67.72 47.96
  A 1.07 0.93 73.1 0 1 68.49 48.44
  L 69.60 50.24
  A 1.21 0.91 74.4 0 0 70.31 50.78
  L 74.20 51.56
  Q 75.84 51.89 74.57 50.69
  L 70.96 47.25"
/>
<path stroke="#969595" vector-effect="non-scaling-stroke" d="
  M 70.96 47.25
  Q 70.42 45.64 69.98 44.01
  Q 69.67 42.90 70.08 42.82
  A 1.40 1.38 74.6 0 1 71.62 43.71
  Q 73.06 47.58 76.58 48.32
  Q 78.16 48.65 76.94 47.60
  Q 73.98 45.05 71.81 41.44
  Q 71.28 40.55 71.50 38.31
  A 0.58 0.50 -83.4 0 1 72.07 37.78
  Q 72.51 37.85 72.69 38.31
  Q 75.18 44.95 81.37 47.61
  Q 81.59 47.70 81.77 47.67
  Q 82.31 47.59 81.68 47.07
  Q 77.38 43.50 75.06 38.44
  Q 74.88 38.03 75.50 37.79"
/>
<path stroke="#808080" vector-effect="non-scaling-stroke" d="
  M 75.50 37.79
  Q 76.19 37.65 76.81 38.44
  Q 79.21 41.47 83.96 45.54
  Q 84.19 45.74 84.45 45.77
  Q 85.03 45.83 84.70 45.26
  Q 82.92 42.14 80.60 39.41
  Q 78.34 36.75 75.50 36.25
  Q 74.55 36.08 74.54 37.25"
/>
<path stroke="#969595" vector-effect="non-scaling-stroke" d="
  M 74.54 37.25
  Q 74.56 37.48 74.48 37.60
  A 0.34 0.21 38.9 0 1 74.04 37.55
  Q 69.84 33.61 70.21 39.76
  A 0.78 0.75 74.3 0 1 69.81 40.50
  Q 67.67 41.63 65.25 41.54"
/>
<path stroke="#838282" vector-effect="non-scaling-stroke" d="
  M 65.25 41.54
  Q 65.07 38.42 67.19 34.69
  Q 72.99 24.44 84.49 21.75
  Q 85.27 21.57 84.68 21.04
  Q 81.02 17.74 76.61 17.58
  Q 73.28 17.46 69.16 19.49
  Q 65.56 21.27 62.69 23.94
  Q 59.41 26.98 56.82 29.24
  Q 53.06 32.54 50.38 33.75
  Q 43.64 36.80 35.98 34.56
  Q 27.83 32.16 19.19 35.02
  A 1.62 1.61 54.4 0 1 17.70 34.77
  Q 14.15 32.12 11.43 29.82
  Q 10.95 29.42 10.64 29.57
  A 0.54 0.38 54.7 0 0 10.64 30.32
  Q 14.68 35.00 22.81 40.44
  Q 32.10 46.65 40.01 48.46
  Q 42.56 49.05 44.93 47.91
  Q 50.56 45.18 55.77 48.47
  Q 57.09 49.31 58.46 50.07
  Q 60.36 51.11 58.74 51.62
  A 1.10 0.92 50.0 0 1 57.84 51.46
  Q 54.17 48.94 49.69 48.57
  A 0.31 0.19 14.0 0 0 49.46 48.64
  L 49.38 48.73
  A 0.21 0.15 25.3 0 0 49.53 49.00
  Q 52.05 49.76 56.56 51.69
  Q 57.55 52.11 57.44 52.79
  A 0.63 0.49 8.4 0 1 56.76 53.17
  L 50.92 52.31
  Q 49.42 52.09 50.78 52.77
  Q 55.64 55.18 60.96 53.93
  A 0.81 0.78 -25.6 0 1 61.77 54.20
  Q 63.14 55.91 61.44 56.36
  Q 60.76 56.54 59.57 56.34
  Q 54.65 55.50 53.50 55.75
  Q 51.81 56.12 53.50 56.50
  Q 58.25 57.58 61.95 57.13
  A 0.92 0.73 -18.1 0 1 62.76 57.43
  Q 63.45 58.36 61.99 58.73
  Q 58.17 59.68 54.24 59.37
  Q 48.79 58.95 52.17 60.28
  Q 52.73 60.50 53.38 60.55
  Q 56.30 60.76 59.25 60.75
  Q 59.76 60.75 59.32 61.01
  Q 53.18 64.55 46.60 62.88
  Q 44.41 62.32 41.56 60.05
  Q 35.58 55.30 28.54 52.25"
/>
<path stroke="#191818" vector-effect="non-scaling-stroke" d="
  M 65.25 41.54
  L 63.04 44.00"
/>
<path stroke="#535152" vector-effect="non-scaling-stroke" d="
  M 63.04 44.00
  Q 62.98 43.77 62.75 43.71"
/>
<path stroke="#191818" vector-effect="non-scaling-stroke" d="
  M 62.75 43.71
  Q 60.28 43.26 61.20 41.63
  Q 62.02 40.18 62.13 39.85
  Q 62.74 38.00 63.25 36.12
  Q 63.86 33.92 64.69 32.55
  Q 68.23 26.64 74.39 23.49
  Q 75.18 23.08 77.33 22.38
  Q 78.84 21.89 80.25 21.17
  A 0.36 0.36 -37.5 0 0 80.33 20.58
  Q 78.90 19.29 77.00 19.75
  Q 71.43 21.10 67.36 25.35
  Q 66.18 26.57 64.41 27.86
  Q 62.81 29.02 61.58 30.58
  Q 60.32 32.16 58.81 33.49
  Q 57.48 34.66 55.39 35.48
  Q 48.43 38.22 46.50 38.75
  Q 44.83 39.21 42.87 38.43
  Q 40.10 37.32 40.03 37.30
  Q 31.32 34.80 22.30 35.99
  Q 20.59 36.22 21.93 37.30
  Q 27.41 41.75 33.81 44.69
  Q 36.84 46.08 39.65 46.53
  Q 41.58 46.84 44.72 45.94
  Q 48.01 45.00 51.45 44.72
  A 0.86 0.74 -77.9 0 0 52.11 44.22
  Q 52.72 42.87 54.07 43.51
  Q 54.54 43.73 55.00 43.77
  Q 56.73 43.91 57.92 45.13
  A 1.89 1.46 68.7 0 0 58.74 45.62
  L 61.21 46.25"
/>
<path stroke="#191818" vector-effect="non-scaling-stroke" d="
  M 61.21 46.25
  Q 61.66 49.61 63.71 52.25"
/>
<path stroke="#4a4848" vector-effect="non-scaling-stroke" d="
  M 63.71 52.25
  Q 63.99 53.78 65.25 54.54"
/>
<path stroke="#1d1a1a" vector-effect="non-scaling-stroke" d="
  M 24.29 50.75
  Q 22.57 52.58 20.80 51.14
  A 1.45 1.32 62.1 0 0 19.94 50.83
  Q 19.28 50.83 18.63 50.71
  Q 17.89 50.58 17.09 49.89
  Q 13.06 46.39 12.94 52.69
  Q 12.89 55.36 11.00 64.50
  Q 9.92 69.75 13.54 72.50"
/>
<path stroke="#0f0d0d" vector-effect="non-scaling-stroke" d="
  M 13.54 72.50
  Q 12.74 76.67 16.06 80.19
  Q 22.21 86.70 29.12 88.83"
/>
<path stroke="#696566" vector-effect="non-scaling-stroke" d="
  M 29.12 88.83
  Q 32.56 87.50 29.31 85.63"
/>
<path stroke="#0f0d0d" vector-effect="non-scaling-stroke" d="
  M 29.31 85.63
  Q 28.85 85.18 28.96 84.25"
/>
<path stroke="#1d1a1a" vector-effect="non-scaling-stroke" d="
  M 28.96 84.25
  Q 31.11 83.44 31.98 85.25
  Q 32.01 85.29 32.33 87.17
  Q 32.74 89.51 36.97 88.35
  Q 38.72 87.87 37.30 86.75
  Q 33.77 83.96 39.14 80.77
  A 0.84 0.73 51.2 0 1 40.09 80.94
  L 43.60 84.45
  A 0.77 0.66 -35.7 0 0 44.45 84.52
  Q 48.03 82.60 50.05 79.03
  Q 52.77 74.22 54.64 69.03
  A 1.77 1.60 84.3 0 1 55.21 68.26
  Q 59.65 64.98 66.33 65.23
  A 3.57 3.52 -24.5 0 1 68.41 65.99
  Q 70.00 67.23 72.20 66.59
  Q 73.85 66.11 71.98 65.89
  Q 66.45 65.24 64.22 60.37
  Q 63.18 58.10 62.42 60.78
  A 1.33 1.31 82.2 0 1 61.84 61.55
  Q 56.19 64.97 50.15 65.66"
/>
<path stroke="#302b2c" vector-effect="non-scaling-stroke" d="
  M 50.15 65.66
  Q 45.00 64.64 40.25 66.46"
/>
<path stroke="#1d1a1a" vector-effect="non-scaling-stroke" d="
  M 40.25 66.46
  Q 40.00 66.15 39.96 65.75"
/>
<path stroke="#302b2c" vector-effect="non-scaling-stroke" d="
  M 39.96 65.75
  L 40.04 64.75"
/>
<path stroke="#0f0d0d" vector-effect="non-scaling-stroke" d="
  M 40.04 64.75
  Q 40.57 64.50 40.65 64.05"
/>
<path stroke="#302b2c" vector-effect="non-scaling-stroke" d="
  M 40.65 64.05
  Q 44.18 62.20 40.04 61.00"
/>
<path stroke="#0f0d0d" vector-effect="non-scaling-stroke" d="
  M 40.04 61.00
  L 38.04 60.50"
/>
<path stroke="#302b2c" vector-effect="non-scaling-stroke" d="
  M 38.04 60.50
  Q 36.72 58.58 34.38 57.57"
/>
<path stroke="#696566" vector-effect="non-scaling-stroke" d="
  M 34.38 57.57
  Q 31.25 52.72 26.19 55.50
  A 0.98 0.96 -10.9 0 0 25.68 56.24
  Q 24.66 63.84 30.21 69.04
  Q 31.76 70.49 32.54 68.50"
/>
<path stroke="#302b2c" vector-effect="non-scaling-stroke" d="
  M 32.54 68.50
  Q 33.97 67.62 35.25 68.79"
/>
<path stroke="#1d1a1a" vector-effect="non-scaling-stroke" d="
  M 35.25 68.79
  Q 35.13 70.57 33.50 70.93
  Q 32.98 71.04 32.59 71.29
  Q 30.96 72.32 29.75 71.25
  Q 23.80 65.97 23.25 57.00
  Q 23.11 54.78 25.49 53.58
  Q 25.66 53.50 27.07 53.19
  Q 27.94 53.00 28.54 52.25"
/>
<path stroke="#666465" vector-effect="non-scaling-stroke" d="
  M 62.75 43.71
  Q 61.18 44.07 61.29 45.75"
/>
<path stroke="#2c2b2b" vector-effect="non-scaling-stroke" d="
  M 61.29 45.75
  L 61.21 46.25"
/>
<path stroke="#161616" vector-effect="non-scaling-stroke" d="
  M 74.54 37.25
  Q 74.81 37.86 75.50 37.79"
/>
<path stroke="#5d5b5b" vector-effect="non-scaling-stroke" d="
  M 67.25 51.46
  Q 64.86 50.36 63.71 52.25"
/>
<path stroke="#666465" vector-effect="non-scaling-stroke" d="
  M 61.29 45.75
  Q 64.18 46.50 63.04 44.00"
/>
<path stroke="#938b8c" vector-effect="non-scaling-stroke" d="
  M 34.38 57.57
  L 37.29 65.25"
/>
<path stroke="#938b8c" vector-effect="non-scaling-stroke" d="
  M 37.25 67.21
  Q 36.33 67.38 36.06 66.69
  Q 34.46 62.45 32.80 58.24
  Q 32.39 57.19 31.78 56.55
  Q 30.98 55.71 30.17 55.30
  Q 28.15 54.30 28.55 56.52
  Q 29.37 61.16 31.06 64.69
  Q 32.43 67.54 32.54 68.50"
/>
<path stroke="#726d6e" vector-effect="non-scaling-stroke" d="
  M 29.31 85.63
  Q 28.80 86.92 29.12 88.83"
/>
<path stroke="#393334" vector-effect="non-scaling-stroke" d="
  M 40.04 61.00
  Q 40.72 62.42 40.65 64.05"
/>
<path stroke="#474041" vector-effect="non-scaling-stroke" d="
  M 35.25 68.79
  Q 36.44 68.25 37.25 67.21"
/>
<path stroke="#807a7b" vector-effect="non-scaling-stroke" d="
  M 37.25 67.21
  L 37.29 65.25"
/>
<path stroke="#474041" vector-effect="non-scaling-stroke" d="
  M 37.29 65.25
  L 39.96 65.75"
/>
<path stroke="#474041" vector-effect="non-scaling-stroke" d="
  M 40.25 66.46
  Q 39.16 66.33 38.60 67.58
  Q 38.26 68.33 39.09 68.24
  Q 44.71 67.62 50.15 65.66"
/>
<path stroke="#262122" vector-effect="non-scaling-stroke" d="
  M 28.96 84.25
  Q 27.86 86.74 26.00 85.75
  Q 22.01 83.62 18.55 78.87
  Q 18.50 78.80 16.87 75.85
  Q 15.72 73.77 13.54 72.50"
/>
<path stroke="#393334" vector-effect="non-scaling-stroke" d="
  M 38.04 60.50
  Q 38.58 62.84 40.04 64.75"
/>
<path stroke="#474546" vector-effect="non-scaling-stroke" d="
  M 68.50 52.46
  Q 68.08 51.69 67.25 51.46"
/>
<path stroke="#161616" vector-effect="non-scaling-stroke" d="
  M 67.25 51.46
  Q 65.73 49.63 65.37 47.30
  A 1.24 1.14 60.6 0 1 65.58 46.40
  Q 66.79 44.77 68.42 46.33
  Q 69.48 47.35 70.96 47.25"
/>
<path stroke="#808080" vector-effect="non-scaling-stroke" d="
  M 80.83 31.82
  Q 77.24 33.30 80.19 35.81
  Q 83.47 38.61 86.25 43.07
  Q 87.24 44.66 87.12 43.73
  Q 87.08 43.47 86.93 43.17
  Q 85.90 41.18 84.78 39.25
  Q 84.04 37.96 82.61 36.80
  Q 81.31 35.74 80.15 34.55
  A 0.92 0.78 34.7 0 1 79.92 33.70
  Q 80.24 32.80 81.25 33.25
  Q 87.45 36.01 89.27 43.25
  Q 89.33 43.50 89.48 43.51
  A 0.25 0.17 83.3 0 0 89.64 43.21
  Q 88.04 35.72 81.25 32.21"
/>
<path stroke="#808080" vector-effect="non-scaling-stroke" d="
  M 81.25 32.21
  Q 82.41 30.31 83.94 31.06
  Q 89.13 33.61 90.75 40.25
  Q 91.18 42.01 91.88 43.04
  Q 92.21 43.51 92.11 42.95
  Q 91.06 37.01 86.81 31.94
  Q 83.47 27.94 80.83 31.82"
/>
<path stroke="#000000" vector-effect="non-scaling-stroke" d="
  M 81.25 32.21
  Q 81.06 32.34 80.83 31.82"
/>
<path stroke="#504f50" vector-effect="non-scaling-stroke" d="
  M 172.4996 6.2731
  A 1.46 1.04 24.4 0 0 171.5996 4.7229
  A 1.46 1.04 24.4 0 0 169.8404 5.0669
  A 1.46 1.04 24.4 0 0 170.7404 6.6171
  A 1.46 1.04 24.4 0 0 172.4996 6.2731"
/>
<path stroke="#666363" vector-effect="non-scaling-stroke" d="
  M 166.36 5.15
  Q 163.82 6.37 166.29 6.49
  Q 166.81 6.51 167.16 6.28
  Q 167.93 5.77 167.23 5.21
  A 0.88 0.74 -36.3 0 0 166.36 5.15"
/>
<path stroke="#474546" vector-effect="non-scaling-stroke" d="
  M 161.57 5.26
  Q 159.47 5.66 160.95 7.11
  A 1.28 1.24 66.9 0 0 161.80 7.47
  Q 163.77 7.52 162.37 5.59
  A 0.82 0.80 66.9 0 0 161.57 5.26"
/>
<path stroke="#504f50" vector-effect="non-scaling-stroke" d="
  M 158.2331 7.7202
  A 1.42 0.95 34.3 0 0 157.5953 6.1352
  A 1.42 0.95 34.3 0 0 155.8869 6.1198
  A 1.42 0.95 34.3 0 0 156.5247 7.7048
  A 1.42 0.95 34.3 0 0 158.2331 7.7202"
/>
<path stroke="#474546" vector-effect="non-scaling-stroke" d="
  M 159.44 9.47
  Q 155.62 9.77 157.64 11.90
  A 0.86 0.61 -27.0 0 0 158.45 12.02
  L 163.50 10.34
  A 0.72 0.57 64.0 0 1 164.24 10.70
  Q 165.46 12.78 166.95 10.91
  A 0.59 0.48 41.9 0 0 166.84 10.20
  L 164.75 8.21
  A 1.05 0.64 52.9 0 0 163.94 7.89
  Q 162.67 8.18 162.30 9.44
  A 0.51 0.41 -70.0 0 1 161.71 9.80
  Q 161.21 9.58 160.93 9.03
  Q 160.12 7.44 159.97 8.94
  A 0.59 0.58 -89.3 0 1 159.44 9.47"
/>
<path stroke="#2d2929" vector-effect="non-scaling-stroke" d="
  M 171.74 7.89
  A 0.69 0.69 -70.7 0 0 170.75 8.37
  Q 170.54 9.43 172.03 9.24
  Q 173.88 9.00 171.74 7.89"
/>
<path stroke="#2d2929" vector-effect="non-scaling-stroke" d="
  M 144.46 14.00
  Q 141.87 13.90 144.25 15.21"
/>
<path stroke="#666363" vector-effect="non-scaling-stroke" d="
  M 144.25 15.21
  L 145.21 17.75"
/>
<path stroke="#2d2929" vector-effect="non-scaling-stroke" d="
  M 145.21 17.75
  Q 143.06 19.84 146.00 18.29"
/>
<path stroke="#666363" vector-effect="non-scaling-stroke" d="
  M 146.00 18.29
  Q 146.84 18.05 147.71 17.92
  Q 148.81 17.75 149.34 17.45
  Q 151.61 16.17 150.19 13.81
  Q 147.47 9.34 144.46 14.00"
/>
<path stroke="#938b8c" vector-effect="non-scaling-stroke" d="
  M 146.00 18.29
  L 145.21 17.75"
/>
<path stroke="#938b8c" vector-effect="non-scaling-stroke" d="
  M 144.25 15.21
  Q 144.50 14.62 144.46 14.00"
/>
<path stroke="#474546" vector-effect="non-scaling-stroke" d="
  M 161.16 14.33
  A 1.34 1.34 -51.7 0 0 163.10 14.10
  Q 164.71 11.91 162.24 12.18
  Q 159.03 12.52 161.16 14.33"
/>
<path stroke="#666363" vector-effect="non-scaling-stroke" d="
  M 137.28 16.82
  L 138.41 19.39
  Q 138.70 20.06 138.73 20.31
  Q 138.94 22.30 139.56 20.97
  A 1.06 0.96 44.7 0 0 139.51 20.07
  Q 138.59 18.36 137.97 16.51
  Q 137.69 15.65 137.37 16.09
  A 0.77 0.73 -39.4 0 0 137.28 16.82"
/>
<path stroke="#666363" vector-effect="non-scaling-stroke" d="
  M 132.1969 18.0320
  A 0.37 0.37 0.0 0 0 131.7254 17.8051
  L 131.4988 17.8844
  A 0.37 0.37 0.0 0 0 131.2719 18.3559
  L 133.0831 23.5280
  A 0.37 0.37 0.0 0 0 133.5546 23.7549
  L 133.7812 23.6756
  A 0.37 0.37 0.0 0 0 134.0081 23.2041
  L 132.1969 18.0320"
/>
<path stroke="#808080" vector-effect="non-scaling-stroke" d="
  M 136.50 19.82
  Q 136.23 18.18 135.07 19.38
  A 0.88 0.87 58.3 0 0 134.87 20.24
  Q 135.28 21.56 136.22 20.68
  A 0.97 0.92 64.7 0 0 136.50 19.82"
/>
<path stroke="#666363" vector-effect="non-scaling-stroke" d="
  M 125.71 21.75
  Q 127.02 23.46 127.37 25.56
  A 0.84 0.56 86.2 0 0 127.89 26.24
  Q 128.43 26.33 128.11 25.29
  Q 127.50 23.36 126.71 21.50"
/>
<path stroke="#2d2929" vector-effect="non-scaling-stroke" d="
  M 126.71 21.50
  Q 126.94 20.76 126.53 20.47
  A 0.81 0.65 -47.1 0 0 125.64 20.60
  Q 124.99 21.17 125.71 21.75"
/>
<path stroke="#938b8c" vector-effect="non-scaling-stroke" d="
  M 126.71 21.50
  Q 126.06 21.33 125.71 21.75"
/>
<path stroke="#504f50" vector-effect="non-scaling-stroke" d="
  M 121.1673 22.2617
  A 0.28 0.28 0.0 0 0 120.8025 22.1076
  L 120.1354 22.3785
  A 0.28 0.28 0.0 0 0 119.9813 22.7433
  L 121.9527 27.5983
  A 0.28 0.28 0.0 0 0 122.3175 27.7524
  L 122.9846 27.4815
  A 0.28 0.28 0.0 0 0 123.1387 27.1167
  L 121.1673 22.2617"
/>
<path stroke="#808080" vector-effect="non-scaling-stroke" d="
  M 125.5551 25.1360
  A 1.29 0.92 38.1 0 0 125.1077 23.6160
  A 1.29 0.92 38.1 0 0 123.5249 23.5440
  A 1.29 0.92 38.1 0 0 123.9723 25.0640
  A 1.29 0.92 38.1 0 0 125.5551 25.1360"
/>
<path stroke="#808080" vector-effect="non-scaling-stroke" d="
  M 116.00 27.75
  Q 114.29 27.02 113.72 28.21
  A 0.59 0.58 26.3 0 0 113.98 28.96
  Q 115.39 29.70 116.00 27.75"
/>
<path stroke="#2d2929" vector-effect="non-scaling-stroke" d="
  M 116.00 27.75
  Q 117.16 27.26 116.76 26.13
  Q 116.52 25.42 116.46 25.20
  Q 116.10 23.84 115.38 24.55
  A 0.50 0.43 42.0 0 0 115.47 25.23
  Q 116.61 26.20 116.00 27.75"
/>
<path stroke="#504f50" vector-effect="non-scaling-stroke" d="
  M 112.00 29.79
  Q 112.09 31.24 113.21 31.59
  A 0.37 0.36 -85.6 0 0 113.67 31.18
  Q 113.53 30.15 112.50 29.71"
/>
<path stroke="#2d2929" vector-effect="non-scaling-stroke" d="
  M 112.50 29.71
  Q 111.74 29.28 112.06 28.06
  Q 112.61 25.98 111.02 26.60
  A 0.55 0.48 -23.9 0 0 110.70 27.29
  L 112.00 29.79"
/>
<path stroke="#7d7779" vector-effect="non-scaling-stroke" d="
  M 112.50 29.71
  L 112.00 29.79"
/>
<path stroke="#808080" vector-effect="non-scaling-stroke" d="
  M 107.04 31.50
  Q 105.50 30.26 104.92 31.52
  A 0.85 0.79 -54.2 0 0 105.03 32.42
  Q 105.59 33.05 106.50 32.46"
/>
<path stroke="#474546" vector-effect="non-scaling-stroke" d="
  M 106.50 32.46
  L 107.50 32.46"
/>
<path stroke="#474546" vector-effect="non-scaling-stroke" d="
  M 107.50 32.46
  Q 110.63 34.73 108.50 31.71"
/>
<path stroke="#474546" vector-effect="non-scaling-stroke" d="
  M 108.50 31.71
  Q 107.97 30.29 107.75 28.79
  Q 107.67 28.27 107.40 27.94
  Q 106.10 26.32 106.26 28.43
  A 1.81 1.03 36.5 0 0 106.65 29.31
  Q 107.40 30.29 107.04 31.50"
/>
<path stroke="#8e8a8b" vector-effect="non-scaling-stroke" d="
  M 108.50 31.71
  Q 107.54 31.62 107.50 32.46"
/>
<path stroke="#c7c5c5" vector-effect="non-scaling-stroke" d="
  M 106.50 32.46
  Q 107.11 32.19 107.04 31.50"
/>
<path stroke="#504f50" vector-effect="non-scaling-stroke" d="
  M 104.87 34.55
  L 103.21 30.30
  A 1.10 0.14 69.8 0 0 102.79 29.50
  Q 102.02 28.99 101.94 29.92
  Q 101.91 30.26 102.11 30.66
  Q 102.90 32.30 103.62 33.99
  Q 103.79 34.38 103.82 34.93
  Q 103.90 36.23 104.61 35.69
  A 1.04 0.91 61.5 0 0 104.87 34.55"
/>
<path stroke="#504f50" vector-effect="non-scaling-stroke" d="
  M 99.29 32.44
  L 99.21 31.06
  A 0.48 0.47 85.6 0 0 98.68 30.60
  Q 96.75 30.83 98.25 32.50
  Q 100.22 34.69 100.19 36.56
  Q 100.17 37.35 100.70 37.45
  A 0.47 0.39 -88.3 0 0 101.16 36.93
  Q 100.97 34.88 99.65 33.31
  A 1.55 1.30 27.6 0 1 99.29 32.44"
/>
<path stroke="#302b2c" vector-effect="non-scaling-stroke" d="
  M 56.65 46.88
  Q 58.24 46.16 56.25 45.82
  A 1.06 0.77 20.8 0 0 55.36 46.06
  Q 54.96 46.51 55.71 46.87
  A 1.17 1.08 -42.0 0 0 56.65 46.88"
/>
<path stroke="#696566" vector-effect="non-scaling-stroke" d="
  M 39.9106 85.6906
  A 1.26 0.96 77.6 0 0 40.5776 84.2539
  A 1.26 0.96 77.6 0 0 39.3694 83.2294
  A 1.26 0.96 77.6 0 0 38.7024 84.6661
  A 1.26 0.96 77.6 0 0 39.9106 85.6906"
/>
<path stroke="#6a6667" vector-effect="non-scaling-stroke" d="
  M 46.04 78.25
  Q 47.12 78.81 48.00 77.96"
/>
<path stroke="#262122" vector-effect="non-scaling-stroke" d="
  M 48.00 77.96
  Q 48.54 78.30 49.03 78.09
  A 0.70 0.57 72.7 0 0 49.34 77.32
  Q 48.71 74.62 46.00 74.50
  A 1.24 1.21 24.4 0 0 45.12 74.82
  Q 43.78 76.07 43.79 77.93
  A 1.26 1.12 -70.7 0 0 44.15 78.81
  Q 45.26 79.85 46.04 78.25"
/>
<path stroke="#5c595a" vector-effect="non-scaling-stroke" d="
  M 48.00 77.96
  Q 45.92 73.77 46.04 78.25"
/>
</g>
<path fill="#ffffff" d="
  M 0.00 0.00
  L 183.00 0.00
  L 183.00 101.00
  L 0.00 101.00
  L 0.00 0.00
  Z
  M 170.54 1.75
  Q 170.60 2.42 170.25 2.96
  Q 168.98 3.62 167.67 3.46
  Q 166.19 3.28 165.82 3.33
  Q 164.87 3.47 163.97 3.81
  Q 163.50 3.99 163.01 3.91
  Q 160.93 3.62 158.95 4.35
  Q 157.21 5.00 157.55 2.66
  A 0.82 0.82 88.8 0 0 156.58 1.73
  Q 154.68 2.11 156.19 3.06
  Q 156.65 3.35 156.71 3.94
  A 0.57 0.47 -5.0 0 1 156.18 4.46
  Q 153.69 4.66 152.99 7.00
  Q 152.43 8.90 150.58 9.61
  Q 123.53 20.08 96.94 30.19
  Q 95.65 30.68 94.78 29.93
  A 1.72 0.63 50.1 0 0 93.95 29.45
  Q 91.49 29.04 92.22 32.33
  Q 90.52 31.52 88.81 29.94
  Q 86.80 28.08 86.38 30.27
  Q 86.33 30.52 86.58 30.36
  L 86.95 30.13
  A 0.90 0.50 46.4 0 1 87.81 30.40
  Q 92.88 35.02 94.54 41.93
  Q 94.87 43.27 95.45 42.02
  Q 96.73 39.25 95.00 36.42
  Q 94.05 34.87 93.21 33.25
  Q 92.37 31.82 93.27 30.62
  A 0.51 0.49 -44.9 0 1 94.08 30.60
  L 98.43 36.79
  A 2.54 1.93 -61.1 0 1 98.70 38.63
  L 96.53 48.00
  A 1.81 1.79 -3.4 0 1 95.36 49.30
  Q 90.85 50.89 94.31 52.83
  Q 95.49 53.49 96.95 53.45
  Q 103.64 53.23 106.94 48.19
  Q 108.74 45.42 111.16 45.20
  A 0.70 0.35 3.8 0 0 111.64 45.00
  Q 111.81 44.75 111.17 44.69
  Q 107.89 44.38 105.86 47.20
  A 0.36 0.36 -43.5 0 1 105.27 47.19
  Q 103.30 44.17 101.80 41.05
  Q 101.68 40.79 101.48 40.63
  Q 100.55 39.87 101.01 41.25
  Q 102.07 44.46 104.55 47.86
  A 0.87 0.86 -33.3 0 1 104.28 49.13
  Q 101.99 50.46 99.57 51.31
  Q 99.45 51.35 98.10 51.91
  Q 96.26 52.67 94.72 51.89
  Q 92.70 50.88 94.92 50.44
  Q 97.11 50.01 97.66 47.98
  Q 98.77 43.91 99.43 40.15
  A 1.71 1.70 -6.5 0 1 100.46 38.87
  Q 127.18 27.89 152.43 17.18
  Q 155.55 15.86 158.54 16.96
  Q 160.23 17.58 161.06 17.42
  Q 162.40 17.17 163.50 16.21
  Q 163.64 20.13 166.25 17.25
  Q 167.67 15.69 165.75 16.00
  Q 164.83 16.15 164.21 15.50
  Q 165.12 13.47 167.25 13.04
  Q 168.04 15.87 169.45 14.15
  A 0.59 0.45 44.1 0 0 169.35 13.46
  L 167.96 12.00
  Q 170.45 9.54 173.54 11.11
  A 1.26 1.25 -51.4 0 0 174.92 10.95
  Q 177.79 8.51 176.19 5.06
  Q 175.02 2.55 171.50 3.21
  Q 171.42 2.57 171.71 2.00
  Q 172.40 0.02 170.78 0.42
  A 0.59 0.47 -15.5 0 0 170.32 1.05
  L 170.54 1.75
  Z
  M 167.3179 2.2047
  A 1.04 0.92 30.3 0 0 166.8842 0.8857
  A 1.04 0.92 30.3 0 0 165.5221 1.1553
  A 1.04 0.92 30.3 0 0 165.9558 2.4743
  A 1.04 0.92 30.3 0 0 167.3179 2.2047
  Z
  M 161.33 1.28
  Q 160.39 1.57 160.56 2.58
  A 0.70 0.65 -1.4 0 0 161.18 3.13
  Q 162.95 3.26 162.07 1.62
  A 0.67 0.60 66.8 0 0 161.33 1.28
  Z
  M 28.54 52.25
  L 24.29 50.75
  Q 13.37 46.49 2.51 42.07
  Q 1.23 41.55 1.79 42.36
  Q 1.92 42.55 2.16 42.67
  Q 5.20 44.18 8.08 45.98
  A 0.64 0.63 25.8 0 1 8.34 46.72
  Q 4.89 57.17 5.89 68.18
  A 0.65 0.63 -12.9 0 1 5.46 68.84
  Q 2.87 69.76 5.53 70.61
  A 1.18 1.15 85.4 0 1 6.22 71.21
  Q 11.02 81.15 19.44 88.34
  Q 25.02 93.10 32.50 92.23
  Q 42.46 91.08 48.74 83.77
  Q 49.76 82.58 51.39 79.94
  Q 52.63 77.95 53.94 76.00
  Q 56.05 72.88 58.59 71.57
  Q 62.96 69.33 68.01 69.68
  Q 72.10 69.96 72.98 69.69
  Q 75.90 68.79 76.38 65.31
  A 0.50 0.48 7.4 0 0 75.94 64.76
  Q 66.84 63.71 65.25 54.54
  Q 66.41 52.76 68.50 52.46
  Q 73.13 57.52 80.01 56.33
  Q 84.49 55.55 87.56 58.69
  Q 92.55 63.82 99.74 64.60
  Q 106.96 65.38 112.23 60.48
  Q 114.02 58.82 115.68 57.03
  Q 115.72 56.99 117.57 55.24
  Q 119.81 53.12 119.50 50.25
  Q 118.75 43.43 114.86 35.48
  Q 113.51 32.72 113.77 35.34
  Q 113.81 35.67 113.91 36.03
  Q 116.99 46.88 117.50 49.75
  Q 118.07 53.00 115.44 55.44
  Q 110.88 59.66 106.29 61.26
  Q 99.76 63.54 93.79 60.83
  Q 92.34 60.17 90.67 58.59
  Q 88.39 56.42 87.69 56.06
  Q 84.53 54.45 80.99 55.21
  Q 71.44 57.25 67.50 48.75
  Q 67.11 47.92 67.72 47.96
  A 1.07 0.93 73.1 0 1 68.49 48.44
  L 69.60 50.24
  A 1.21 0.91 74.4 0 0 70.31 50.78
  L 74.20 51.56
  Q 75.84 51.89 74.57 50.69
  L 70.96 47.25
  Q 70.42 45.64 69.98 44.01
  Q 69.67 42.90 70.08 42.82
  A 1.40 1.38 74.6 0 1 71.62 43.71
  Q 73.06 47.58 76.58 48.32
  Q 78.16 48.65 76.94 47.60
  Q 73.98 45.05 71.81 41.44
  Q 71.28 40.55 71.50 38.31
  A 0.58 0.50 -83.4 0 1 72.07 37.78
  Q 72.51 37.85 72.69 38.31
  Q 75.18 44.95 81.37 47.61
  Q 81.59 47.70 81.77 47.67
  Q 82.31 47.59 81.68 47.07
  Q 77.38 43.50 75.06 38.44
  Q 74.88 38.03 75.50 37.79
  Q 76.19 37.65 76.81 38.44
  Q 79.21 41.47 83.96 45.54
  Q 84.19 45.74 84.45 45.77
  Q 85.03 45.83 84.70 45.26
  Q 82.92 42.14 80.60 39.41
  Q 78.34 36.75 75.50 36.25
  Q 74.55 36.08 74.54 37.25
  Q 74.56 37.48 74.48 37.60
  A 0.34 0.21 38.9 0 1 74.04 37.55
  Q 69.84 33.61 70.21 39.76
  A 0.78 0.75 74.3 0 1 69.81 40.50
  Q 67.67 41.63 65.25 41.54
  Q 65.07 38.42 67.19 34.69
  Q 72.99 24.44 84.49 21.75
  Q 85.27 21.57 84.68 21.04
  Q 81.02 17.74 76.61 17.58
  Q 73.28 17.46 69.16 19.49
  Q 65.56 21.27 62.69 23.94
  Q 59.41 26.98 56.82 29.24
  Q 53.06 32.54 50.38 33.75
  Q 43.64 36.80 35.98 34.56
  Q 27.83 32.16 19.19 35.02
  A 1.62 1.61 54.4 0 1 17.70 34.77
  Q 14.15 32.12 11.43 29.82
  Q 10.95 29.42 10.64 29.57
  A 0.54 0.38 54.7 0 0 10.64 30.32
  Q 14.68 35.00 22.81 40.44
  Q 32.10 46.65 40.01 48.46
  Q 42.56 49.05 44.93 47.91
  Q 50.56 45.18 55.77 48.47
  Q 57.09 49.31 58.46 50.07
  Q 60.36 51.11 58.74 51.62
  A 1.10 0.92 50.0 0 1 57.84 51.46
  Q 54.17 48.94 49.69 48.57
  A 0.31 0.19 14.0 0 0 49.46 48.64
  L 49.38 48.73
  A 0.21 0.15 25.3 0 0 49.53 49.00
  Q 52.05 49.76 56.56 51.69
  Q 57.55 52.11 57.44 52.79
  A 0.63 0.49 8.4 0 1 56.76 53.17
  L 50.92 52.31
  Q 49.42 52.09 50.78 52.77
  Q 55.64 55.18 60.96 53.93
  A 0.81 0.78 -25.6 0 1 61.77 54.20
  Q 63.14 55.91 61.44 56.36
  Q 60.76 56.54 59.57 56.34
  Q 54.65 55.50 53.50 55.75
  Q 51.81 56.12 53.50 56.50
  Q 58.25 57.58 61.95 57.13
  A 0.92 0.73 -18.1 0 1 62.76 57.43
  Q 63.45 58.36 61.99 58.73
  Q 58.17 59.68 54.24 59.37
  Q 48.79 58.95 52.17 60.28
  Q 52.73 60.50 53.38 60.55
  Q 56.30 60.76 59.25 60.75
  Q 59.76 60.75 59.32 61.01
  Q 53.18 64.55 46.60 62.88
  Q 44.41 62.32 41.56 60.05
  Q 35.58 55.30 28.54 52.25
  Z
  M 80.83 31.82
  Q 77.24 33.30 80.19 35.81
  Q 83.47 38.61 86.25 43.07
  Q 87.24 44.66 87.12 43.73
  Q 87.08 43.47 86.93 43.17
  Q 85.90 41.18 84.78 39.25
  Q 84.04 37.96 82.61 36.80
  Q 81.31 35.74 80.15 34.55
  A 0.92 0.78 34.7 0 1 79.92 33.70
  Q 80.24 32.80 81.25 33.25
  Q 87.45 36.01 89.27 43.25
  Q 89.33 43.50 89.48 43.51
  A 0.25 0.17 83.3 0 0 89.64 43.21
  Q 88.04 35.72 81.25 32.21
  Q 82.41 30.31 83.94 31.06
  Q 89.13 33.61 90.75 40.25
  Q 91.18 42.01 91.88 43.04
  Q 92.21 43.51 92.11 42.95
  Q 91.06 37.01 86.81 31.94
  Q 83.47 27.94 80.83 31.82
  Z"
/>
<path fill="#000000" d="
  M 171.71 2.00
  Q 171.05 2.12 170.54 1.75
  L 170.32 1.05
  A 0.59 0.47 -15.5 0 1 170.78 0.42
  Q 172.40 0.02 171.71 2.00
  Z"
/>
<ellipse fill="#060505" cx="0.00" cy="0.00" transform="translate(166.42,1.68) rotate(30.3)" rx="1.04" ry="0.92"/>
<path fill="#000000" d="
  M 162.07 1.62
  Q 162.95 3.26 161.18 3.13
  A 0.70 0.65 -1.4 0 1 160.56 2.58
  Q 160.39 1.57 161.33 1.28
  A 0.67 0.60 66.8 0 1 162.07 1.62
  Z"
/>
<path fill="#000000" d="
  M 170.25 2.96
  Q 170.85 3.26 171.50 3.21
  Q 175.02 2.55 176.19 5.06
  Q 177.79 8.51 174.92 10.95
  A 1.26 1.25 -51.4 0 1 173.54 11.11
  Q 170.45 9.54 167.96 12.00
  Q 167.77 12.68 167.25 13.04
  Q 165.12 13.47 164.21 15.50
  Q 163.75 15.75 163.50 16.21
  Q 162.40 17.17 161.06 17.42
  Q 160.23 17.58 158.54 16.96
  Q 155.55 15.86 152.43 17.18
  Q 127.18 27.89 100.46 38.87
  A 1.71 1.70 -6.5 0 0 99.43 40.15
  Q 98.77 43.91 97.66 47.98
  Q 97.11 50.01 94.92 50.44
  Q 92.70 50.88 94.72 51.89
  Q 96.26 52.67 98.10 51.91
  Q 99.45 51.35 99.57 51.31
  Q 101.99 50.46 104.28 49.13
  A 0.87 0.86 -33.3 0 0 104.55 47.86
  Q 102.07 44.46 101.01 41.25
  Q 100.55 39.87 101.48 40.63
  Q 101.68 40.79 101.80 41.05
  Q 103.30 44.17 105.27 47.19
  A 0.36 0.36 -43.5 0 0 105.86 47.20
  Q 107.89 44.38 111.17 44.69
  Q 111.81 44.75 111.64 45.00
  A 0.70 0.35 3.8 0 1 111.16 45.20
  Q 108.74 45.42 106.94 48.19
  Q 103.64 53.23 96.95 53.45
  Q 95.49 53.49 94.31 52.83
  Q 90.85 50.89 95.36 49.30
  A 1.81 1.79 -3.4 0 0 96.53 48.00
  L 98.70 38.63
  A 2.54 1.93 -61.1 0 0 98.43 36.79
  L 94.08 30.60
  A 0.51 0.49 -44.9 0 0 93.27 30.62
  Q 92.37 31.82 93.21 33.25
  Q 91.83 33.20 92.22 32.33
  Q 91.49 29.04 93.95 29.45
  A 1.72 0.63 50.1 0 1 94.78 29.93
  Q 95.65 30.68 96.94 30.19
  Q 123.53 20.08 150.58 9.61
  Q 152.43 8.90 152.99 7.00
  Q 153.69 4.66 156.18 4.46
  A 0.57 0.47 -5.0 0 0 156.71 3.94
  Q 156.65 3.35 156.19 3.06
  Q 154.68 2.11 156.58 1.73
  A 0.82 0.82 88.8 0 1 157.55 2.66
  Q 157.21 5.00 158.95 4.35
  Q 160.93 3.62 163.01 3.91
  Q 163.50 3.99 163.97 3.81
  Q 164.87 3.47 165.82 3.33
  Q 166.19 3.28 167.67 3.46
  Q 168.98 3.62 170.25 2.96
  Z
  M 172.4996 6.2731
  A 1.46 1.04 24.4 0 0 171.5996 4.7229
  A 1.46 1.04 24.4 0 0 169.8404 5.0669
  A 1.46 1.04 24.4 0 0 170.7404 6.6171
  A 1.46 1.04 24.4 0 0 172.4996 6.2731
  Z
  M 166.36 5.15
  Q 163.82 6.37 166.29 6.49
  Q 166.81 6.51 167.16 6.28
  Q 167.93 5.77 167.23 5.21
  A 0.88 0.74 -36.3 0 0 166.36 5.15
  Z
  M 161.57 5.26
  Q 159.47 5.66 160.95 7.11
  A 1.28 1.24 66.9 0 0 161.80 7.47
  Q 163.77 7.52 162.37 5.59
  A 0.82 0.80 66.9 0 0 161.57 5.26
  Z
  M 158.2331 7.7202
  A 1.42 0.95 34.3 0 0 157.5953 6.1352
  A 1.42 0.95 34.3 0 0 155.8869 6.1198
  A 1.42 0.95 34.3 0 0 156.5247 7.7048
  A 1.42 0.95 34.3 0 0 158.2331 7.7202
  Z
  M 159.44 9.47
  Q 155.62 9.77 157.64 11.90
  A 0.86 0.61 -27.0 0 0 158.45 12.02
  L 163.50 10.34
  A 0.72 0.57 64.0 0 1 164.24 10.70
  Q 165.46 12.78 166.95 10.91
  A 0.59 0.48 41.9 0 0 166.84 10.20
  L 164.75 8.21
  A 1.05 0.64 52.9 0 0 163.94 7.89
  Q 162.67 8.18 162.30 9.44
  A 0.51 0.41 -70.0 0 1 161.71 9.80
  Q 161.21 9.58 160.93 9.03
  Q 160.12 7.44 159.97 8.94
  A 0.59 0.58 -89.3 0 1 159.44 9.47
  Z
  M 171.74 7.89
  A 0.69 0.69 -70.7 0 0 170.75 8.37
  Q 170.54 9.43 172.03 9.24
  Q 173.88 9.00 171.74 7.89
  Z
  M 144.46 14.00
  Q 141.87 13.90 144.25 15.21
  L 145.21 17.75
  Q 143.06 19.84 146.00 18.29
  Q 146.84 18.05 147.71 17.92
  Q 148.81 17.75 149.34 17.45
  Q 151.61 16.17 150.19 13.81
  Q 147.47 9.34 144.46 14.00
  Z
  M 161.16 14.33
  A 1.34 1.34 -51.7 0 0 163.10 14.10
  Q 164.71 11.91 162.24 12.18
  Q 159.03 12.52 161.16 14.33
  Z
  M 137.28 16.82
  L 138.41 19.39
  Q 138.70 20.06 138.73 20.31
  Q 138.94 22.30 139.56 20.97
  A 1.06 0.96 44.7 0 0 139.51 20.07
  Q 138.59 18.36 137.97 16.51
  Q 137.69 15.65 137.37 16.09
  A 0.77 0.73 -39.4 0 0 137.28 16.82
  Z
  M 132.1969 18.0320
  A 0.37 0.37 0.0 0 0 131.7254 17.8051
  L 131.4988 17.8844
  A 0.37 0.37 0.0 0 0 131.2719 18.3559
  L 133.0831 23.5280
  A 0.37 0.37 0.0 0 0 133.5546 23.7549
  L 133.7812 23.6756
  A 0.37 0.37 0.0 0 0 134.0081 23.2041
  L 132.1969 18.0320
  Z
  M 136.50 19.82
  Q 136.23 18.18 135.07 19.38
  A 0.88 0.87 58.3 0 0 134.87 20.24
  Q 135.28 21.56 136.22 20.68
  A 0.97 0.92 64.7 0 0 136.50 19.82
  Z
  M 125.71 21.75
  Q 127.02 23.46 127.37 25.56
  A 0.84 0.56 86.2 0 0 127.89 26.24
  Q 128.43 26.33 128.11 25.29
  Q 127.50 23.36 126.71 21.50
  Q 126.94 20.76 126.53 20.47
  A 0.81 0.65 -47.1 0 0 125.64 20.60
  Q 124.99 21.17 125.71 21.75
  Z
  M 121.1673 22.2617
  A 0.28 0.28 0.0 0 0 120.8025 22.1076
  L 120.1354 22.3785
  A 0.28 0.28 0.0 0 0 119.9813 22.7433
  L 121.9527 27.5983
  A 0.28 0.28 0.0 0 0 122.3175 27.7524
  L 122.9846 27.4815
  A 0.28 0.28 0.0 0 0 123.1387 27.1167
  L 121.1673 22.2617
  Z
  M 125.5551 25.1360
  A 1.29 0.92 38.1 0 0 125.1077 23.6160
  A 1.29 0.92 38.1 0 0 123.5249 23.5440
  A 1.29 0.92 38.1 0 0 123.9723 25.0640
  A 1.29 0.92 38.1 0 0 125.5551 25.1360
  Z
  M 116.00 27.75
  Q 114.29 27.02 113.72 28.21
  A 0.59 0.58 26.3 0 0 113.98 28.96
  Q 115.39 29.70 116.00 27.75
  Q 117.16 27.26 116.76 26.13
  Q 116.52 25.42 116.46 25.20
  Q 116.10 23.84 115.38 24.55
  A 0.50 0.43 42.0 0 0 115.47 25.23
  Q 116.61 26.20 116.00 27.75
  Z
  M 112.00 29.79
  Q 112.09 31.24 113.21 31.59
  A 0.37 0.36 -85.6 0 0 113.67 31.18
  Q 113.53 30.15 112.50 29.71
  Q 111.74 29.28 112.06 28.06
  Q 112.61 25.98 111.02 26.60
  A 0.55 0.48 -23.9 0 0 110.70 27.29
  L 112.00 29.79
  Z
  M 107.04 31.50
  Q 105.50 30.26 104.92 31.52
  A 0.85 0.79 -54.2 0 0 105.03 32.42
  Q 105.59 33.05 106.50 32.46
  L 107.50 32.46
  Q 110.63 34.73 108.50 31.71
  Q 107.97 30.29 107.75 28.79
  Q 107.67 28.27 107.40 27.94
  Q 106.10 26.32 106.26 28.43
  A 1.81 1.03 36.5 0 0 106.65 29.31
  Q 107.40 30.29 107.04 31.50
  Z
  M 104.87 34.55
  L 103.21 30.30
  A 1.10 0.14 69.8 0 0 102.79 29.50
  Q 102.02 28.99 101.94 29.92
  Q 101.91 30.26 102.11 30.66
  Q 102.90 32.30 103.62 33.99
  Q 103.79 34.38 103.82 34.93
  Q 103.90 36.23 104.61 35.69
  A 1.04 0.91 61.5 0 0 104.87 34.55
  Z
  M 99.29 32.44
  L 99.21 31.06
  A 0.48 0.47 85.6 0 0 98.68 30.60
  Q 96.75 30.83 98.25 32.50
  Q 100.22 34.69 100.19 36.56
  Q 100.17 37.35 100.70 37.45
  A 0.47 0.39 -88.3 0 0 101.16 36.93
  Q 100.97 34.88 99.65 33.31
  A 1.55 1.30 27.6 0 1 99.29 32.44
  Z"
/>
<path fill="#5a5152" d="
  M 170.54 1.75
  Q 171.05 2.12 171.71 2.00
  Q 171.42 2.57 171.50 3.21
  Q 170.85 3.26 170.25 2.96
  Q 170.60 2.42 170.54 1.75
  Z"
/>
<ellipse fill="#a09d9f" cx="0.00" cy="0.00" transform="translate(171.17,5.67) rotate(24.4)" rx="1.46" ry="1.04"/>
<path fill="#ccc5c6" d="
  M 167.23 5.21
  Q 167.93 5.77 167.16 6.28
  Q 166.81 6.51 166.29 6.49
  Q 163.82 6.37 166.36 5.15
  A 0.88 0.74 -36.3 0 1 167.23 5.21
  Z"
/>
<path fill="#8e8a8b" d="
  M 162.37 5.59
  Q 163.77 7.52 161.80 7.47
  A 1.28 1.24 66.9 0 1 160.95 7.11
  Q 159.47 5.66 161.57 5.26
  A 0.82 0.80 66.9 0 1 162.37 5.59
  Z"
/>
<ellipse fill="#a09d9f" cx="0.00" cy="0.00" transform="translate(157.06,6.92) rotate(34.3)" rx="1.42" ry="0.95"/>
<path fill="#8e8a8b" d="
  M 159.97 8.94
  Q 160.12 7.44 160.93 9.03
  Q 161.21 9.58 161.71 9.80
  A 0.51 0.41 -70.0 0 0 162.30 9.44
  Q 162.67 8.18 163.94 7.89
  A 1.05 0.64 52.9 0 1 164.75 8.21
  L 166.84 10.20
  A 0.59 0.48 41.9 0 1 166.95 10.91
  Q 165.46 12.78 164.24 10.70
  A 0.72 0.57 64.0 0 0 163.50 10.34
  L 158.45 12.02
  A 0.86 0.61 -27.0 0 1 157.64 11.90
  Q 155.62 9.77 159.44 9.47
  A 0.59 0.58 -89.3 0 0 159.97 8.94
  Z"
/>
<path fill="#5a5152" d="
  M 171.74 7.89
  Q 173.88 9.00 172.03 9.24
  Q 170.54 9.43 170.75 8.37
  A 0.69 0.69 -70.7 0 1 171.74 7.89
  Z"
/>
<path fill="#ccc5c6" d="
  M 146.00 18.29
  L 145.21 17.75
  L 144.25 15.21
  Q 144.50 14.62 144.46 14.00
  Q 147.47 9.34 150.19 13.81
  Q 151.61 16.17 149.34 17.45
  Q 148.81 17.75 147.71 17.92
  Q 146.84 18.05 146.00 18.29
  Z"
/>
<path fill="#5a5152" d="
  M 167.96 12.00
  L 169.35 13.46
  A 0.59 0.45 44.1 0 1 169.45 14.15
  Q 168.04 15.87 167.25 13.04
  Q 167.77 12.68 167.96 12.00
  Z"
/>
<path fill="#8e8a8b" d="
  M 161.16 14.33
  Q 159.03 12.52 162.24 12.18
  Q 164.71 11.91 163.10 14.10
  A 1.34 1.34 -51.7 0 1 161.16 14.33
  Z"
/>
<path fill="#5a5152" d="
  M 144.46 14.00
  Q 144.50 14.62 144.25 15.21
  Q 141.87 13.90 144.46 14.00
  Z"
/>
<path fill="#5a5152" d="
  M 164.21 15.50
  Q 164.83 16.15 165.75 16.00
  Q 167.67 15.69 166.25 17.25
  Q 163.64 20.13 163.50 16.21
  Q 163.75 15.75 164.21 15.50
  Z"
/>
<path fill="#ccc5c6" d="
  M 137.37 16.09
  Q 137.69 15.65 137.97 16.51
  Q 138.59 18.36 139.51 20.07
  A 1.06 0.96 44.7 0 1 139.56 20.97
  Q 138.94 22.30 138.73 20.31
  Q 138.70 20.06 138.41 19.39
  L 137.28 16.82
  A 0.77 0.73 -39.4 0 1 137.37 16.09
  Z"
/>
<path fill="#060505" d="
  M 65.25 41.54
  L 63.04 44.00
  Q 62.98 43.77 62.75 43.71
  Q 60.28 43.26 61.20 41.63
  Q 62.02 40.18 62.13 39.85
  Q 62.74 38.00 63.25 36.12
  Q 63.86 33.92 64.69 32.55
  Q 68.23 26.64 74.39 23.49
  Q 75.18 23.08 77.33 22.38
  Q 78.84 21.89 80.25 21.17
  A 0.36 0.36 -37.5 0 0 80.33 20.58
  Q 78.90 19.29 77.00 19.75
  Q 71.43 21.10 67.36 25.35
  Q 66.18 26.57 64.41 27.86
  Q 62.81 29.02 61.58 30.58
  Q 60.32 32.16 58.81 33.49
  Q 57.48 34.66 55.39 35.48
  Q 48.43 38.22 46.50 38.75
  Q 44.83 39.21 42.87 38.43
  Q 40.10 37.32 40.03 37.30
  Q 31.32 34.80 22.30 35.99
  Q 20.59 36.22 21.93 37.30
  Q 27.41 41.75 33.81 44.69
  Q 36.84 46.08 39.65 46.53
  Q 41.58 46.84 44.72 45.94
  Q 48.01 45.00 51.45 44.72
  A 0.86 0.74 -77.9 0 0 52.11 44.22
  Q 52.72 42.87 54.07 43.51
  Q 54.54 43.73 55.00 43.77
  Q 56.73 43.91 57.92 45.13
  A 1.89 1.46 68.7 0 0 58.74 45.62
  L 61.21 46.25
  Q 61.66 49.61 63.71 52.25
  Q 63.99 53.78 65.25 54.54
  Q 66.84 63.71 75.94 64.76
  A 0.50 0.48 7.4 0 1 76.38 65.31
  Q 75.90 68.79 72.98 69.69
  Q 72.10 69.96 68.01 69.68
  Q 62.96 69.33 58.59 71.57
  Q 56.05 72.88 53.94 76.00
  Q 52.63 77.95 51.39 79.94
  Q 49.76 82.58 48.74 83.77
  Q 42.46 91.08 32.50 92.23
  Q 25.02 93.10 19.44 88.34
  Q 11.02 81.15 6.22 71.21
  A 1.18 1.15 85.4 0 0 5.53 70.61
  Q 2.87 69.76 5.46 68.84
  A 0.65 0.63 -12.9 0 0 5.89 68.18
  Q 4.89 57.17 8.34 46.72
  A 0.64 0.63 25.8 0 0 8.08 45.98
  Q 5.20 44.18 2.16 42.67
  Q 1.92 42.55 1.79 42.36
  Q 1.23 41.55 2.51 42.07
  Q 13.37 46.49 24.29 50.75
  Q 22.57 52.58 20.80 51.14
  A 1.45 1.32 62.1 0 0 19.94 50.83
  Q 19.28 50.83 18.63 50.71
  Q 17.89 50.58 17.09 49.89
  Q 13.06 46.39 12.94 52.69
  Q 12.89 55.36 11.00 64.50
  Q 9.92 69.75 13.54 72.50
  Q 12.74 76.67 16.06 80.19
  Q 22.21 86.70 29.12 88.83
  Q 32.56 87.50 29.31 85.63
  Q 28.85 85.18 28.96 84.25
  Q 31.11 83.44 31.98 85.25
  Q 32.01 85.29 32.33 87.17
  Q 32.74 89.51 36.97 88.35
  Q 38.72 87.87 37.30 86.75
  Q 33.77 83.96 39.14 80.77
  A 0.84 0.73 51.2 0 1 40.09 80.94
  L 43.60 84.45
  A 0.77 0.66 -35.7 0 0 44.45 84.52
  Q 48.03 82.60 50.05 79.03
  Q 52.77 74.22 54.64 69.03
  A 1.77 1.60 84.3 0 1 55.21 68.26
  Q 59.65 64.98 66.33 65.23
  A 3.57 3.52 -24.5 0 1 68.41 65.99
  Q 70.00 67.23 72.20 66.59
  Q 73.85 66.11 71.98 65.89
  Q 66.45 65.24 64.22 60.37
  Q 63.18 58.10 62.42 60.78
  A 1.33 1.31 82.2 0 1 61.84 61.55
  Q 56.19 64.97 50.15 65.66
  Q 45.00 64.64 40.25 66.46
  Q 40.00 66.15 39.96 65.75
  L 40.04 64.75
  Q 40.57 64.50 40.65 64.05
  Q 44.18 62.20 40.04 61.00
  L 38.04 60.50
  Q 36.72 58.58 34.38 57.57
  Q 31.25 52.72 26.19 55.50
  A 0.98 0.96 -10.9 0 0 25.68 56.24
  Q 24.66 63.84 30.21 69.04
  Q 31.76 70.49 32.54 68.50
  Q 33.97 67.62 35.25 68.79
  Q 35.13 70.57 33.50 70.93
  Q 32.98 71.04 32.59 71.29
  Q 30.96 72.32 29.75 71.25
  Q 23.80 65.97 23.25 57.00
  Q 23.11 54.78 25.49 53.58
  Q 25.66 53.50 27.07 53.19
  Q 27.94 53.00 28.54 52.25
  Q 35.58 55.30 41.56 60.05
  Q 44.41 62.32 46.60 62.88
  Q 53.18 64.55 59.32 61.01
  Q 59.76 60.75 59.25 60.75
  Q 56.30 60.76 53.38 60.55
  Q 52.73 60.50 52.17 60.28
  Q 48.79 58.95 54.24 59.37
  Q 58.17 59.68 61.99 58.73
  Q 63.45 58.36 62.76 57.43
  A 0.92 0.73 -18.1 0 0 61.95 57.13
  Q 58.25 57.58 53.50 56.50
  Q 51.81 56.12 53.50 55.75
  Q 54.65 55.50 59.57 56.34
  Q 60.76 56.54 61.44 56.36
  Q 63.14 55.91 61.77 54.20
  A 0.81 0.78 -25.6 0 0 60.96 53.93
  Q 55.64 55.18 50.78 52.77
  Q 49.42 52.09 50.92 52.31
  L 56.76 53.17
  A 0.63 0.49 8.4 0 0 57.44 52.79
  Q 57.55 52.11 56.56 51.69
  Q 52.05 49.76 49.53 49.00
  A 0.21 0.15 25.3 0 1 49.38 48.73
  L 49.46 48.64
  A 0.31 0.19 14.0 0 1 49.69 48.57
  Q 54.17 48.94 57.84 51.46
  A 1.10 0.92 50.0 0 0 58.74 51.62
  Q 60.36 51.11 58.46 50.07
  Q 57.09 49.31 55.77 48.47
  Q 50.56 45.18 44.93 47.91
  Q 42.56 49.05 40.01 48.46
  Q 32.10 46.65 22.81 40.44
  Q 14.68 35.00 10.64 30.32
  A 0.54 0.38 54.7 0 1 10.64 29.57
  Q 10.95 29.42 11.43 29.82
  Q 14.15 32.12 17.70 34.77
  A 1.62 1.61 54.4 0 0 19.19 35.02
  Q 27.83 32.16 35.98 34.56
  Q 43.64 36.80 50.38 33.75
  Q 53.06 32.54 56.82 29.24
  Q 59.41 26.98 62.69 23.94
  Q 65.56 21.27 69.16 19.49
  Q 73.28 17.46 76.61 17.58
  Q 81.02 17.74 84.68 21.04
  Q 85.27 21.57 84.49 21.75
  Q 72.99 24.44 67.19 34.69
  Q 65.07 38.42 65.25 41.54
  Z
  M 56.65 46.88
  Q 58.24 46.16 56.25 45.82
  A 1.06 0.77 20.8 0 0 55.36 46.06
  Q 54.96 46.51 55.71 46.87
  A 1.17 1.08 -42.0 0 0 56.65 46.88
  Z
  M 39.9106 85.6906
  A 1.26 0.96 77.6 0 0 40.5776 84.2539
  A 1.26 0.96 77.6 0 0 39.3694 83.2294
  A 1.26 0.96 77.6 0 0 38.7024 84.6661
  A 1.26 0.96 77.6 0 0 39.9106 85.6906
  Z"
/>
<rect fill="#ccc5c6" x="-0.49" y="-3.11" transform="translate(132.64,20.78) rotate(-19.3)" width="0.98" height="6.22" rx="0.37"/>
<path fill="#5a5152" d="
  M 145.21 17.75
  L 146.00 18.29
  Q 143.06 19.84 145.21 17.75
  Z"
/>
<path fill="#ffffff" d="
  M 136.22 20.68
  Q 135.28 21.56 134.87 20.24
  A 0.88 0.87 58.3 0 1 135.07 19.38
  Q 136.23 18.18 136.50 19.82
  A 0.97 0.92 64.7 0 1 136.22 20.68
  Z"
/>
<path fill="#2c2b2b" d="
  M 62.75 43.71
  Q 61.18 44.07 61.29 45.75
  L 61.21 46.25
  L 58.74 45.62
  A 1.89 1.46 68.7 0 1 57.92 45.13
  Q 56.73 43.91 55.00 43.77
  Q 54.54 43.73 54.07 43.51
  Q 52.72 42.87 52.11 44.22
  A 0.86 0.74 -77.9 0 1 51.45 44.72
  Q 48.01 45.00 44.72 45.94
  Q 41.58 46.84 39.65 46.53
  Q 36.84 46.08 33.81 44.69
  Q 27.41 41.75 21.93 37.30
  Q 20.59 36.22 22.30 35.99
  Q 31.32 34.80 40.03 37.30
  Q 40.10 37.32 42.87 38.43
  Q 44.83 39.21 46.50 38.75
  Q 48.43 38.22 55.39 35.48
  Q 57.48 34.66 58.81 33.49
  Q 60.32 32.16 61.58 30.58
  Q 62.81 29.02 64.41 27.86
  Q 66.18 26.57 67.36 25.35
  Q 71.43 21.10 77.00 19.75
  Q 78.90 19.29 80.33 20.58
  A 0.36 0.36 -37.5 0 1 80.25 21.17
  Q 78.84 21.89 77.33 22.38
  Q 75.18 23.08 74.39 23.49
  Q 68.23 26.64 64.69 32.55
  Q 63.86 33.92 63.25 36.12
  Q 62.74 38.00 62.13 39.85
  Q 62.02 40.18 61.20 41.63
  Q 60.28 43.26 62.75 43.71
  Z"
/>
<path fill="#5a5152" d="
  M 126.71 21.50
  Q 126.06 21.33 125.71 21.75
  Q 124.99 21.17 125.64 20.60
  A 0.81 0.65 -47.1 0 1 126.53 20.47
  Q 126.94 20.76 126.71 21.50
  Z"
/>
<path fill="#ccc5c6" d="
  M 126.71 21.50
  Q 127.50 23.36 128.11 25.29
  Q 128.43 26.33 127.89 26.24
  A 0.84 0.56 86.2 0 1 127.37 25.56
  Q 127.02 23.46 125.71 21.75
  Q 126.06 21.33 126.71 21.50
  Z"
/>
<rect fill="#a09d9f" x="-0.64" y="-2.90" transform="translate(121.56,24.93) rotate(-22.1)" width="1.28" height="5.80" rx="0.28"/>
<ellipse fill="#ffffff" cx="0.00" cy="0.00" transform="translate(124.54,24.34) rotate(38.1)" rx="1.29" ry="0.92"/>
<path fill="#5a5152" d="
  M 116.00 27.75
  Q 116.61 26.20 115.47 25.23
  A 0.50 0.43 42.0 0 1 115.38 24.55
  Q 116.10 23.84 116.46 25.20
  Q 116.52 25.42 116.76 26.13
  Q 117.16 27.26 116.00 27.75
  Z"
/>
<path fill="#5a5152" d="
  M 112.50 29.71
  L 112.00 29.79
  L 110.70 27.29
  A 0.55 0.48 -23.9 0 1 111.02 26.60
  Q 112.61 25.98 112.06 28.06
  Q 111.74 29.28 112.50 29.71
  Z"
/>
<path fill="#8e8a8b" d="
  M 108.50 31.71
  Q 107.54 31.62 107.50 32.46
  L 106.50 32.46
  Q 107.11 32.19 107.04 31.50
  Q 107.40 30.29 106.65 29.31
  A 1.81 1.03 36.5 0 1 106.26 28.43
  Q 106.10 26.32 107.40 27.94
  Q 107.67 28.27 107.75 28.79
  Q 107.97 30.29 108.50 31.71
  Z"
/>
<path fill="#ffffff" d="
  M 116.00 27.75
  Q 115.39 29.70 113.98 28.96
  A 0.59 0.58 26.3 0 1 113.72 28.21
  Q 114.29 27.02 116.00 27.75
  Z"
/>
<path fill="#000000" d="
  M 92.22 32.33
  Q 91.83 33.20 93.21 33.25
  Q 94.05 34.87 95.00 36.42
  Q 96.73 39.25 95.45 42.02
  Q 94.87 43.27 94.54 41.93
  Q 92.88 35.02 87.81 30.40
  A 0.90 0.50 46.4 0 0 86.95 30.13
  L 86.58 30.36
  Q 86.33 30.52 86.38 30.27
  Q 86.80 28.08 88.81 29.94
  Q 90.52 31.52 92.22 32.33
  Z"
/>
<path fill="#a09d9f" d="
  M 104.87 34.55
  A 1.04 0.91 61.5 0 1 104.61 35.69
  Q 103.90 36.23 103.82 34.93
  Q 103.79 34.38 103.62 33.99
  Q 102.90 32.30 102.11 30.66
  Q 101.91 30.26 101.94 29.92
  Q 102.02 28.99 102.79 29.50
  A 1.10 0.14 69.8 0 1 103.21 30.30
  L 104.87 34.55
  Z"
/>
<path fill="#000000" d="
  M 81.25 32.21
  Q 81.06 32.34 80.83 31.82
  Q 83.47 27.94 86.81 31.94
  Q 91.06 37.01 92.11 42.95
  Q 92.21 43.51 91.88 43.04
  Q 91.18 42.01 90.75 40.25
  Q 89.13 33.61 83.94 31.06
  Q 82.41 30.31 81.25 32.21
  Z"
/>
<path fill="#a09d9f" d="
  M 112.00 29.79
  L 112.50 29.71
  Q 113.53 30.15 113.67 31.18
  A 0.37 0.36 -85.6 0 1 113.21 31.59
  Q 112.09 31.24 112.00 29.79
  Z"
/>
<path fill="#a09d9f" d="
  M 99.65 33.31
  Q 100.97 34.88 101.16 36.93
  A 0.47 0.39 -88.3 0 1 100.70 37.45
  Q 100.17 37.35 100.19 36.56
  Q 100.22 34.69 98.25 32.50
  Q 96.75 30.83 98.68 30.60
  A 0.48 0.47 85.6 0 1 99.21 31.06
  L 99.29 32.44
  A 1.55 1.30 27.6 0 0 99.65 33.31
  Z"
/>
<path fill="#ffffff" d="
  M 107.04 31.50
  Q 107.11 32.19 106.50 32.46
  Q 105.59 33.05 105.03 32.42
  A 0.85 0.79 -54.2 0 1 104.92 31.52
  Q 105.50 30.26 107.04 31.50
  Z"
/>
<path fill="#8e8a8b" d="
  M 108.50 31.71
  Q 110.63 34.73 107.50 32.46
  Q 107.54 31.62 108.50 31.71
  Z"
/>
<path fill="#000000" d="
  M 80.83 31.82
  Q 81.06 32.34 81.25 32.21
  Q 88.04 35.72 89.64 43.21
  A 0.25 0.17 83.3 0 1 89.48 43.51
  Q 89.33 43.50 89.27 43.25
  Q 87.45 36.01 81.25 33.25
  Q 80.24 32.80 79.92 33.70
  A 0.92 0.78 34.7 0 0 80.15 34.55
  Q 81.31 35.74 82.61 36.80
  Q 84.04 37.96 84.78 39.25
  Q 85.90 41.18 86.93 43.17
  Q 87.08 43.47 87.12 43.73
  Q 87.24 44.66 86.25 43.07
  Q 83.47 38.61 80.19 35.81
  Q 77.24 33.30 80.83 31.82
  Z"
/>
<path fill="#000000" d="
  M 68.50 52.46
  Q 68.08 51.69 67.25 51.46
  Q 65.73 49.63 65.37 47.30
  A 1.24 1.14 60.6 0 1 65.58 46.40
  Q 66.79 44.77 68.42 46.33
  Q 69.48 47.35 70.96 47.25
  L 74.57 50.69
  Q 75.84 51.89 74.20 51.56
  L 70.31 50.78
  A 1.21 0.91 74.4 0 1 69.60 50.24
  L 68.49 48.44
  A 1.07 0.93 73.1 0 0 67.72 47.96
  Q 67.11 47.92 67.50 48.75
  Q 71.44 57.25 80.99 55.21
  Q 84.53 54.45 87.69 56.06
  Q 88.39 56.42 90.67 58.59
  Q 92.34 60.17 93.79 60.83
  Q 99.76 63.54 106.29 61.26
  Q 110.88 59.66 115.44 55.44
  Q 118.07 53.00 117.50 49.75
  Q 116.99 46.88 113.91 36.03
  Q 113.81 35.67 113.77 35.34
  Q 113.51 32.72 114.86 35.48
  Q 118.75 43.43 119.50 50.25
  Q 119.81 53.12 117.57 55.24
  Q 115.72 56.99 115.68 57.03
  Q 114.02 58.82 112.23 60.48
  Q 106.96 65.38 99.74 64.60
  Q 92.55 63.82 87.56 58.69
  Q 84.49 55.55 80.01 56.33
  Q 73.13 57.52 68.50 52.46
  Z"
/>
<path fill="#2c2b2b" d="
  M 74.54 37.25
  Q 74.81 37.86 75.50 37.79
  Q 74.88 38.03 75.06 38.44
  Q 77.38 43.50 81.68 47.07
  Q 82.31 47.59 81.77 47.67
  Q 81.59 47.70 81.37 47.61
  Q 75.18 44.95 72.69 38.31
  Q 72.51 37.85 72.07 37.78
  A 0.58 0.50 -83.4 0 0 71.50 38.31
  Q 71.28 40.55 71.81 41.44
  Q 73.98 45.05 76.94 47.60
  Q 78.16 48.65 76.58 48.32
  Q 73.06 47.58 71.62 43.71
  A 1.40 1.38 74.6 0 0 70.08 42.82
  Q 69.67 42.90 69.98 44.01
  Q 70.42 45.64 70.96 47.25
  Q 69.48 47.35 68.42 46.33
  Q 66.79 44.77 65.58 46.40
  A 1.24 1.14 60.6 0 0 65.37 47.30
  Q 65.73 49.63 67.25 51.46
  Q 64.86 50.36 63.71 52.25
  Q 61.66 49.61 61.21 46.25
  L 61.29 45.75
  Q 64.18 46.50 63.04 44.00
  L 65.25 41.54
  Q 67.67 41.63 69.81 40.50
  A 0.78 0.75 74.3 0 0 70.21 39.76
  Q 69.84 33.61 74.04 37.55
  A 0.34 0.21 38.9 0 0 74.48 37.60
  Q 74.56 37.48 74.54 37.25
  Z"
/>
<path fill="#000000" d="
  M 75.50 37.79
  Q 74.81 37.86 74.54 37.25
  Q 74.55 36.08 75.50 36.25
  Q 78.34 36.75 80.60 39.41
  Q 82.92 42.14 84.70 45.26
  Q 85.03 45.83 84.45 45.77
  Q 84.19 45.74 83.96 45.54
  Q 79.21 41.47 76.81 38.44
  Q 76.19 37.65 75.50 37.79
  Z"
/>
<path fill="#a09d9f" d="
  M 62.75 43.71
  Q 62.98 43.77 63.04 44.00
  Q 64.18 46.50 61.29 45.75
  Q 61.18 44.07 62.75 43.71
  Z"
/>
<path fill="#5a5152" d="
  M 55.71 46.87
  Q 54.96 46.51 55.36 46.06
  A 1.06 0.77 20.8 0 1 56.25 45.82
  Q 58.24 46.16 56.65 46.88
  A 1.17 1.08 -42.0 0 1 55.71 46.87
  Z"
/>
<path fill="#342e2f" d="
  M 24.29 50.75
  L 28.54 52.25
  Q 27.94 53.00 27.07 53.19
  Q 25.66 53.50 25.49 53.58
  Q 23.11 54.78 23.25 57.00
  Q 23.80 65.97 29.75 71.25
  Q 30.96 72.32 32.59 71.29
  Q 32.98 71.04 33.50 70.93
  Q 35.13 70.57 35.25 68.79
  Q 36.44 68.25 37.25 67.21
  L 37.29 65.25
  L 39.96 65.75
  Q 40.00 66.15 40.25 66.46
  Q 39.16 66.33 38.60 67.58
  Q 38.26 68.33 39.09 68.24
  Q 44.71 67.62 50.15 65.66
  Q 56.19 64.97 61.84 61.55
  A 1.33 1.31 82.2 0 0 62.42 60.78
  Q 63.18 58.10 64.22 60.37
  Q 66.45 65.24 71.98 65.89
  Q 73.85 66.11 72.20 66.59
  Q 70.00 67.23 68.41 65.99
  A 3.57 3.52 -24.5 0 0 66.33 65.23
  Q 59.65 64.98 55.21 68.26
  A 1.77 1.60 84.3 0 0 54.64 69.03
  Q 52.77 74.22 50.05 79.03
  Q 48.03 82.60 44.45 84.52
  A 0.77 0.66 -35.7 0 1 43.60 84.45
  L 40.09 80.94
  A 0.84 0.73 51.2 0 0 39.14 80.77
  Q 33.77 83.96 37.30 86.75
  Q 38.72 87.87 36.97 88.35
  Q 32.74 89.51 32.33 87.17
  Q 32.01 85.29 31.98 85.25
  Q 31.11 83.44 28.96 84.25
  Q 27.86 86.74 26.00 85.75
  Q 22.01 83.62 18.55 78.87
  Q 18.50 78.80 16.87 75.85
  Q 15.72 73.77 13.54 72.50
  Q 9.92 69.75 11.00 64.50
  Q 12.89 55.36 12.94 52.69
  Q 13.06 46.39 17.09 49.89
  Q 17.89 50.58 18.63 50.71
  Q 19.28 50.83 19.94 50.83
  A 1.45 1.32 62.1 0 1 20.80 51.14
  Q 22.57 52.58 24.29 50.75
  Z
  M 46.04 78.25
  Q 47.12 78.81 48.00 77.96
  Q 48.54 78.30 49.03 78.09
  A 0.70 0.57 72.7 0 0 49.34 77.32
  Q 48.71 74.62 46.00 74.50
  A 1.24 1.21 24.4 0 0 45.12 74.82
  Q 43.78 76.07 43.79 77.93
  A 1.26 1.12 -70.7 0 0 44.15 78.81
  Q 45.26 79.85 46.04 78.25
  Z"
/>
<path fill="#8e8a8b" d="
  M 67.25 51.46
  Q 68.08 51.69 68.50 52.46
  Q 66.41 52.76 65.25 54.54
  Q 63.99 53.78 63.71 52.25
  Q 64.86 50.36 67.25 51.46
  Z"
/>
<path fill="#ccc5c6" d="
  M 34.38 57.57
  L 37.29 65.25
  L 37.25 67.21
  Q 36.33 67.38 36.06 66.69
  Q 34.46 62.45 32.80 58.24
  Q 32.39 57.19 31.78 56.55
  Q 30.98 55.71 30.17 55.30
  Q 28.15 54.30 28.55 56.52
  Q 29.37 61.16 31.06 64.69
  Q 32.43 67.54 32.54 68.50
  Q 31.76 70.49 30.21 69.04
  Q 24.66 63.84 25.68 56.24
  A 0.98 0.96 -10.9 0 1 26.19 55.50
  Q 31.25 52.72 34.38 57.57
  Z"
/>
<path fill="#5a5152" d="
  M 37.25 67.21
  Q 36.44 68.25 35.25 68.79
  Q 33.97 67.62 32.54 68.50
  Q 32.43 67.54 31.06 64.69
  Q 29.37 61.16 28.55 56.52
  Q 28.15 54.30 30.17 55.30
  Q 30.98 55.71 31.78 56.55
  Q 32.39 57.19 32.80 58.24
  Q 34.46 62.45 36.06 66.69
  Q 36.33 67.38 37.25 67.21
  Z"
/>
<path fill="#5a5152" d="
  M 34.38 57.57
  Q 36.72 58.58 38.04 60.50
  Q 38.58 62.84 40.04 64.75
  L 39.96 65.75
  L 37.29 65.25
  L 34.38 57.57
  Z"
/>
<path fill="#171415" d="
  M 38.04 60.50
  L 40.04 61.00
  Q 40.72 62.42 40.65 64.05
  Q 40.57 64.50 40.04 64.75
  Q 38.58 62.84 38.04 60.50
  Z"
/>
<path fill="#5a5152" d="
  M 40.04 61.00
  Q 44.18 62.20 40.65 64.05
  Q 40.72 62.42 40.04 61.00
  Z"
/>
<path fill="#5a5152" d="
  M 50.15 65.66
  Q 44.71 67.62 39.09 68.24
  Q 38.26 68.33 38.60 67.58
  Q 39.16 66.33 40.25 66.46
  Q 45.00 64.64 50.15 65.66
  Z"
/>
<path fill="#171415" d="
  M 13.54 72.50
  Q 15.72 73.77 16.87 75.85
  Q 18.50 78.80 18.55 78.87
  Q 22.01 83.62 26.00 85.75
  Q 27.86 86.74 28.96 84.25
  Q 28.85 85.18 29.31 85.63
  Q 28.80 86.92 29.12 88.83
  Q 22.21 86.70 16.06 80.19
  Q 12.74 76.67 13.54 72.50
  Z"
/>
<path fill="#171415" d="
  M 48.00 77.96
  Q 45.92 73.77 46.04 78.25
  Q 45.26 79.85 44.15 78.81
  A 1.26 1.12 -70.7 0 1 43.79 77.93
  Q 43.78 76.07 45.12 74.82
  A 1.24 1.21 24.4 0 1 46.00 74.50
  Q 48.71 74.62 49.34 77.32
  A 0.70 0.57 72.7 0 1 49.03 78.09
  Q 48.54 78.30 48.00 77.96
  Z"
/>
<path fill="#a09d9f" d="
  M 48.00 77.96
  Q 47.12 78.81 46.04 78.25
  Q 45.92 73.77 48.00 77.96
  Z"
/>
<ellipse fill="#ccc5c6" cx="0.00" cy="0.00" transform="translate(39.64,84.46) rotate(77.6)" rx="1.26" ry="0.96"/>
<path fill="#ccc5c6" d="
  M 29.31 85.63
  Q 32.56 87.50 29.12 88.83
  Q 28.80 86.92 29.31 85.63
  Z"
/>
</svg>
